<svg xmlns="http://www.w3.org/2000/svg" width="1200" height="675" viewBox="0 0 1200 675"><defs><linearGradient id="bg" x1="0" y1="0" x2="1" y2="1"><stop stop-color="#080b16"/><stop offset=".5" stop-color="#251152"/><stop offset="1" stop-color="#073d78"/></linearGradient></defs><rect width="1200" height="675" fill="url(#bg)"/><text x="72" y="90" fill="white" font-family="Arial" font-weight="700" font-size="42">RepCounter</text><text x="72" y="125" fill="#aeb8d0" font-family="Arial" font-size="18">Track. Progress. Crush PRs.</text><rect x="70" y="170" width="290" height="420" rx="28" fill="#0c1223" stroke="#ffffff22"/><rect x="395" y="170" width="735" height="420" rx="28" fill="#151d33" stroke="#ffffff22"/><rect x="100" y="215" width="230" height="90" rx="18" fill="#8f2458"/><rect x="100" y="325" width="230" height="90" rx="18" fill="#155ca9"/><rect x="100" y="435" width="230" height="90" rx="18" fill="#176b4c"/><g fill="white" font-family="Arial" font-weight="700" font-size="24"><text x="125" y="267">Push</text><text x="125" y="377">Pull</text><text x="125" y="487">Legs</text></g><text x="435" y="225" fill="white" font-family="Arial" font-weight="700" font-size="28">Push workout</text><g fill="#171f35" stroke="#ffffff14"><rect x="435" y="260" width="420" height="72" rx="16"/><rect x="435" y="348" width="420" height="72" rx="16"/><rect x="435" y="436" width="420" height="72" rx="16"/></g><g fill="white" font-family="Arial" font-size="19"><text x="470" y="304">Bench Press · 4 sets</text><text x="470" y="392">Incline Dumbbell Press · 3 sets</text><text x="470" y="480">Shoulder Press · 3 sets</text></g><rect x="885" y="260" width="205" height="248" rx="20" fill="#121a31" stroke="#ffffff14"/><polyline points="915,455 945,420 980,430 1015,370 1050,390 1070,320" fill="none" stroke="#9b7bff" stroke-width="6" stroke-linecap="round"/><text x="910" y="300" fill="white" font-family="Arial" font-weight="700" font-size="20">Progressie</text><text x="910" y="545" fill="#9ee8ce" font-family="Arial" font-weight="700" font-size="20">PR advies: 92,5 kg</text></svg>
